HIERARCHY
ROOT Hips
{
	OFFSET 0.000000 0.000000 0.000000
	CHANNELS 6 Xposition Yposition Zposition Zrotation Yrotation Xrotation 
	JOINT LeftUpLeg_virtual
	{
		OFFSET 0.000000 0.000000 0.000000
		CHANNELS 3 Zrotation Yrotation Xrotation
		JOINT LeftUpLeg
		{
			OFFSET 10.205400 -3.823500 0.155100
			CHANNELS 3 Zrotation Yrotation Xrotation
			JOINT LeftLeg
			{
				OFFSET 0.708757 -12.982077 0.567790
				CHANNELS 3 Zrotation Yrotation Xrotation
				JOINT LeftFoot
				{
					OFFSET -0.708756 -10.717838 -2.184338
					CHANNELS 3 Zrotation Yrotation Xrotation
					JOINT LeftToeBase
					{
						OFFSET 0.108149 -7.191104 7.560241
						CHANNELS 3 Zrotation Yrotation Xrotation
						End Site
						{
							OFFSET 0.000000 0.000000 0.000000
						}
					}
				}
			}
		}
	}
	JOINT RightUpLeg_virtual
	{
		OFFSET 0.000000 0.000000 0.000000
		CHANNELS 3 Zrotation Yrotation Xrotation
		JOINT RightUpLeg
		{
			OFFSET -10.205400 -3.823500 0.005500
			CHANNELS 3 Zrotation Yrotation Xrotation
			JOINT RightLeg
			{
				OFFSET -0.708756 -12.982134 0.610632
				CHANNELS 3 Zrotation Yrotation Xrotation
				JOINT RightFoot
				{
					OFFSET 0.708754 -10.717769 -1.945823
					CHANNELS 3 Zrotation Yrotation Xrotation
					JOINT RightToeBase
					{
						OFFSET -0.108140 -7.191069 7.372968
						CHANNELS 3 Zrotation Yrotation Xrotation
						End Site
						{
							OFFSET 0.000000 0.000000 0.000000
						}
					}
				}
			}
		}
	}
	JOINT Spine_virtual
	{
		OFFSET 0.000000 0.000000 0.000000
		CHANNELS 3 Zrotation Yrotation Xrotation
		JOINT Spine
		{
			OFFSET 0.000000 6.876099 0.125700
			CHANNELS 3 Zrotation Yrotation Xrotation
			JOINT Spine1
			{
				OFFSET 0.000000 8.022060 0.146608
				CHANNELS 3 Zrotation Yrotation Xrotation
				JOINT Spine2
				{
					OFFSET 0.000000 9.168068 0.167552
					CHANNELS 3 Zrotation Yrotation Xrotation
					JOINT Neck_virtual
					{
						OFFSET 0.000000 0.000000 0.000000
						CHANNELS 3 Zrotation Yrotation Xrotation
						JOINT Neck
						{
							OFFSET 0.000000 10.314075 0.188496
							CHANNELS 3 Zrotation Yrotation Xrotation
							JOINT Head
							{
								OFFSET 0.000000 7.643700 -2.377400
								CHANNELS 3 Zrotation Yrotation Xrotation
								End Site
								{
									OFFSET 0.000000 0.000000 0.000000
								}
							}
						}
					}
					JOINT LeftShoulder_virtual
					{
						OFFSET 0.000000 0.000000 0.000000
						CHANNELS 3 Zrotation Yrotation Xrotation
						JOINT LeftShoulder
						{
							OFFSET 4.392200 8.824978 0.174984
							CHANNELS 3 Zrotation Yrotation Xrotation
							JOINT LeftArm
							{
								OFFSET 8.771219 -2.981674 -0.026999
								CHANNELS 3 Zrotation Yrotation Xrotation
								JOINT LeftForeArm
								{
									OFFSET 8.512804 0.000000 -0.000000
									CHANNELS 3 Zrotation Yrotation Xrotation
									JOINT LeftHand
									{
										OFFSET 18.484802 0.000000 -0.000000
										CHANNELS 3 Zrotation Yrotation Xrotation
										End Site
										{
											OFFSET 0.000000 0.000000 0.000000
										}
									}
								}
							}
						}
					}
					JOINT RightShoulder_virtual
					{
						OFFSET 0.000000 0.000000 0.000000
						CHANNELS 3 Zrotation Yrotation Xrotation
						JOINT RightShoulder
						{
							OFFSET -4.392200 8.824993 0.141379
							CHANNELS 3 Zrotation Yrotation Xrotation
							JOINT RightArm
							{
								OFFSET -8.771282 -2.981682 -0.094208
								CHANNELS 3 Zrotation Yrotation Xrotation
								JOINT RightForeArm
								{
									OFFSET -8.494598 0.000000 0.000000
									CHANNELS 3 Zrotation Yrotation Xrotation
									JOINT RightHand
									{
										OFFSET -18.483803 0.000000 0.000001
										CHANNELS 3 Zrotation Yrotation Xrotation
										End Site
										{
											OFFSET 0.000000 0.000000 0.000000
										}
									}
								}
							}
						}
					}
				}
			}
		}
	}
}
MOTION
Frames: 9
Frame Time: 0.033333
-2.627214 26.660355 -2.287103 179.865122 6.423868 -179.667143 0.934229 -3.826492 11.101106 -4.226662 14.018801 -83.765959 10.647444 -2.694932 86.888148 -11.431476 -6.419904 0.390117 0.000000 0.000000 0.000000 4.474127 -1.380042 9.768262 -1.322507 -6.393341 -83.573949 -0.833887 0.746465 84.172717 -1.238569 9.678714 -3.025285 0.000000 0.000000 0.000000 2.796628 -0.648516 13.916908 -0.606259 -0.144468 8.115463 -1.921060 -0.861407 13.294847 0.013520 -0.012067 0.053814 -1.516308 0.188007 14.912086 -4.062780 0.843850 19.855831 0.000000 0.000000 0.000000 -0.659244 0.906483 10.588023 -2.801981 -12.160280 0.183835 -45.542513 4.009774 -20.789841 -0.051995 -78.806552 0.459847 0.000000 0.000000 0.000000 -3.685649 2.015983 10.408226 19.585899 8.236730 -1.051407 57.466862 -32.169317 8.374372 -13.868837 72.355964 -15.660531 0.000000 0.000000 0.000000 
-2.844265 26.072918 -1.900994 -179.900995 6.483676 -179.827078 1.028896 -3.920197 9.644522 -4.188372 14.905324 -84.741822 10.464031 -2.218380 89.423255 -11.112661 -6.325629 0.090158 0.000000 0.000000 0.000000 4.576921 -1.162131 8.429529 -1.686618 -6.568775 -84.416398 -0.851185 0.860288 86.191639 -1.497649 10.226958 -3.438116 0.000000 0.000000 0.000000 2.857167 -0.723197 12.400503 -0.937807 -0.309059 7.568331 -1.952051 -0.710400 13.682970 -0.021392 0.020918 0.018668 -1.605307 0.315916 15.589608 -3.895608 1.036433 19.826263 0.000000 0.000000 0.000000 -0.695423 1.041907 11.140527 -2.880904 -12.961393 0.328004 -44.266138 3.312084 -22.424116 -0.685017 -79.897340 1.188173 0.000000 0.000000 0.000000 -3.721132 2.095387 11.083464 19.956329 8.268129 -1.371491 58.062612 -30.490559 6.859261 -12.600610 70.705476 -14.139671 0.000000 0.000000 0.000000 
-2.954252 25.586710 -1.576379 -179.975116 6.357067 -179.910448 1.173468 -4.281986 8.047771 -4.090160 15.337311 -84.949440 10.560862 -1.826712 91.191802 -10.785723 -6.104673 -0.128246 0.000000 0.000000 0.000000 4.458897 -1.267982 6.892376 -1.825040 -6.730176 -84.931763 -0.921217 0.894994 87.753294 -1.615560 10.610803 -3.318215 0.000000 0.000000 0.000000 2.676670 -0.682404 10.521287 -1.329649 -0.674531 6.954184 -1.998416 -0.660802 14.033011 -0.020423 0.000565 0.016216 -1.695638 0.463718 16.278052 -3.892761 1.210236 19.798647 0.000000 0.000000 0.000000 -0.698061 1.145020 11.732020 -2.959411 -13.845240 0.680407 -43.057738 2.717306 -23.273086 -0.817970 -80.858149 1.474864 0.000000 0.000000 0.000000 -3.724664 2.230635 11.721062 20.428669 8.445471 -1.621823 58.205219 -28.787051 5.989820 -11.453805 68.999234 -12.687321 0.000000 0.000000 0.000000 
-2.994907 25.206802 -1.321462 -179.959666 6.297336 -179.957603 1.335939 -4.552286 6.535235 -3.505407 15.713820 -84.692194 10.530392 -1.506892 92.632159 -10.578264 -6.325471 -0.357653 0.000000 0.000000 0.000000 4.482816 -1.433374 5.149486 -1.804582 -6.803743 -84.955983 -1.012019 0.832377 89.039869 -1.562874 10.790962 -2.820372 0.000000 0.000000 0.000000 2.414749 -0.765189 8.586843 -1.715028 -0.900355 6.096488 -2.062948 -0.565168 14.421881 -0.010427 -0.007010 0.004860 -1.822260 0.598286 16.916178 -4.015584 1.381596 19.790337 0.000000 0.000000 0.000000 -0.720685 1.298784 12.349436 -3.128268 -14.753968 0.920305 -42.095955 2.333084 -23.291227 -2.108423 -81.619716 2.965651 0.000000 0.000000 0.000000 -3.725855 2.327010 12.360917 21.052766 8.709014 -1.859502 57.999432 -27.177975 5.727810 -10.529353 67.427873 -11.419608 0.000000 0.000000 0.000000 
-2.973134 24.922419 -1.108818 -179.998543 6.348860 -179.935323 1.465316 -4.686302 4.882513 -2.741878 15.855990 -84.018498 10.320467 -1.397963 93.814977 -10.171900 -6.441049 -0.697907 0.000000 0.000000 0.000000 4.588719 -1.657509 3.414380 -1.759317 -6.698384 -84.706845 -1.199257 0.795510 90.036845 -1.308164 10.712222 -2.231215 0.000000 0.000000 0.000000 2.075564 -0.674926 6.602590 -2.079267 -1.034891 5.108227 -2.107568 -0.407579 14.748817 -0.000998 -0.106969 -0.022803 -2.003302 0.584198 17.518298 -4.263382 1.509660 19.744248 0.000000 0.000000 0.000000 -0.775992 1.349791 12.938881 -3.381671 -15.546173 1.233926 -41.640187 2.168936 -22.472118 -2.711759 -82.365115 3.782919 0.000000 0.000000 0.000000 -3.772578 2.399870 13.057578 21.706109 9.034791 -2.022496 57.531742 -25.566125 5.888412 -10.443821 66.171330 -10.941131 0.000000 0.000000 0.000000 
-2.920367 24.706697 -0.958779 179.954844 6.469962 179.947467 1.563690 -4.815826 3.390634 -1.999681 15.950331 -83.059799 10.030443 -1.501438 94.599759 -9.740390 -6.542699 -0.899043 0.000000 0.000000 0.000000 4.685044 -1.792003 1.791135 -1.473200 -6.788733 -84.135629 -1.521579 0.742686 90.939966 -0.902036 10.274766 -1.888750 0.000000 0.000000 0.000000 1.720000 -0.596035 4.765933 -2.385336 -1.204860 4.040019 -2.190009 -0.369751 15.032022 -0.006873 0.003587 -0.008811 -2.066234 0.857679 18.049125 -4.563985 1.668539 19.647589 0.000000 0.000000 0.000000 -0.752512 1.494742 13.530600 -3.737964 -16.141665 1.494613 -41.526034 1.951822 -21.193689 -4.034581 -83.091041 5.327813 0.000000 0.000000 0.000000 -3.763583 2.567792 13.691930 22.381657 9.298679 -2.237331 56.770166 -24.066110 5.757339 -10.342079 65.293439 -10.487048 0.000000 0.000000 0.000000 
-2.895641 24.529860 -0.827980 -179.994869 6.578226 179.964269 1.721147 -4.987612 1.873095 -1.516910 16.161749 -82.082584 9.781762 -1.664561 95.366270 -9.304007 -6.611803 -0.686048 0.000000 0.000000 0.000000 4.882966 -1.920836 0.020189 -1.553730 -7.073243 -83.377547 -2.214265 0.484197 91.725356 -0.079061 10.254073 -1.530230 0.000000 0.000000 0.000000 1.457192 -0.593906 2.616448 -2.536477 -1.325248 3.078273 -2.234825 -0.299142 15.365528 -0.017205 0.018141 -0.034599 -2.249677 0.772273 18.614583 -4.906062 1.721161 19.678600 0.000000 0.000000 0.000000 -0.771535 1.579803 14.043345 -4.118950 -16.594421 1.825692 -41.709028 1.739487 -19.709821 -5.218688 -83.790220 6.726435 0.000000 0.000000 0.000000 -3.790481 2.602597 14.276113 22.996029 9.593905 -2.494520 55.784573 -22.465033 5.434172 -10.372007 64.623124 -10.212708 0.000000 0.000000 0.000000 
-2.881889 24.355602 -0.671615 179.994828 6.630673 179.857527 1.863421 -5.201970 0.261791 -1.267009 16.554435 -81.210294 9.595950 -1.838415 95.962819 -8.908352 -6.708624 -0.198908 0.000000 0.000000 0.000000 5.000577 -1.972321 -1.773825 -1.250925 -7.664332 -82.472437 -2.202702 0.386643 92.586288 0.068685 9.984314 -1.304842 0.000000 0.000000 0.000000 1.220444 -0.596871 0.535258 -2.552780 -1.353630 2.206342 -2.261200 -0.234039 15.688770 0.015745 -0.006819 -0.045032 -2.344289 0.804963 19.052570 -5.241549 1.694034 19.600874 0.000000 0.000000 0.000000 -0.810239 1.649820 14.509180 -4.543380 -16.798167 1.957161 -41.889045 1.431463 -17.847610 -7.388449 -84.523748 9.107980 0.000000 0.000000 0.000000 -3.837920 2.654748 14.891805 23.478922 9.937847 -2.755331 54.627440 -20.733796 4.975306 -10.437163 64.068377 -10.003608 0.000000 0.000000 0.000000 
-2.867469 24.168724 -0.492106 179.984787 6.682268 179.752137 1.986800 -5.347374 -1.395534 -1.207573 17.184554 -80.493411 9.526859 -1.965787 96.523106 -8.428929 -6.752472 0.500509 0.000000 0.000000 0.000000 5.111101 -1.978780 -3.548749 -0.620896 -8.269783 -81.451461 -2.381838 0.604613 93.342308 0.208444 9.656481 -1.233918 0.000000 0.000000 0.000000 1.017347 -0.606328 -1.454130 -2.406516 -1.318754 1.497701 -2.303017 -0.185362 15.869058 0.009393 0.000450 -0.008714 -2.382886 1.051703 19.380634 -5.504165 1.757667 19.488866 0.000000 0.000000 0.000000 -0.771137 1.665006 14.970351 -4.893767 -16.850102 2.071478 -42.009505 0.783747 -16.041401 -9.938374 -85.046032 11.873567 0.000000 0.000000 0.000000 -3.825577 2.740154 15.333903 23.905993 10.337624 -2.847758 53.212733 -18.689158 4.595466 -10.799948 63.659494 -10.176974 0.000000 0.000000 0.000000 
